<?xml version="1.0" standalone="no"?>
<!DOCTYPE svg PUBLIC "-//W3C//DTD SVG 20010904//EN"
 "http://www.w3.org/TR/2001/REC-SVG-20010904/DTD/svg10.dtd">
<svg version="1.0" xmlns="http://www.w3.org/2000/svg"
 width="1125.000000pt" height="1125.000000pt" viewBox="0 0 1125.000000 1125.000000"
 preserveAspectRatio="xMidYMid meet">
<metadata>
Created by potrace 1.14, written by Peter Selinger 2001-2017
</metadata>
<g transform="translate(0.000000,1125.000000) scale(0.100000,-0.100000)"
fill="#000000" stroke="none">
<path d="M6954 10598 c3 -24 8 -61 11 -83 4 -22 7 -51 8 -65 1 -14 6 -28 12
-32 6 -5 6 -8 -2 -8 -8 0 -9 -9 -4 -27 5 -16 8 -42 7 -60 -1 -17 2 -29 5 -27
4 2 7 -11 6 -29 0 -17 3 -50 6 -72 4 -22 9 -65 12 -95 3 -30 7 -68 9 -85 2
-16 7 -59 10 -95 4 -36 8 -75 10 -86 2 -12 7 -52 10 -90 4 -38 8 -80 11 -94 2
-14 6 -52 9 -85 3 -33 8 -76 11 -95 5 -34 11 -77 19 -142 6 -41 18 -153 21
-193 2 -17 5 -52 9 -78 3 -26 8 -67 11 -92 3 -25 7 -65 10 -90 5 -41 9 -76 20
-175 6 -54 18 -174 18 -187 0 -7 3 -13 6 -13 3 0 7 -17 7 -38 3 -70 12 -167
17 -182 3 -8 8 -40 11 -70 3 -30 10 -95 16 -145 13 -119 19 -169 25 -235 3
-30 8 -71 10 -90 3 -19 7 -55 10 -80 2 -25 7 -67 11 -95 3 -27 7 -62 7 -77 0
-16 3 -28 6 -28 3 0 7 -24 8 -53 1 -28 4 -63 7 -76 5 -22 7 -41 21 -176 3 -27
7 -66 9 -85 3 -19 7 -64 11 -100 3 -36 8 -76 10 -90 7 -43 18 -151 24 -227 1
-10 202 -13 969 -13 533 0 971 2 974 5 3 3 -3 34 -14 68 -11 34 -21 69 -23 78
-7 33 -34 120 -42 132 -8 12 -12 27 -18 63 -1 11 -7 29 -13 40 -5 10 -19 51
-30 89 -11 39 -41 133 -65 210 -25 77 -55 174 -67 215 -12 41 -37 120 -55 175
-33 100 -74 234 -80 264 -2 9 -15 48 -29 86 -27 78 -78 242 -81 265 -2 8 -10
34 -18 57 -9 22 -13 44 -10 47 4 3 2 6 -3 6 -5 0 -16 21 -23 48 -25 89 -81
268 -98 312 -3 8 -7 20 -8 26 -2 6 -15 51 -30 100 -15 49 -29 100 -32 114 -2
14 -8 29 -14 35 -5 5 -9 19 -9 32 0 13 -5 23 -11 23 -5 0 -7 4 -4 10 3 5 -1
23 -10 40 -8 16 -15 33 -16 37 0 13 -37 140 -78 268 -22 66 -53 167 -71 225
-17 58 -34 114 -38 125 -3 11 -6 22 -7 25 0 3 -3 10 -6 15 -4 6 -18 51 -33
100 -15 50 -36 118 -47 152 -10 34 -19 69 -19 78 0 8 -4 15 -8 15 -5 0 -9 6
-9 13 -1 6 -8 35 -17 62 -9 28 -28 88 -42 135 -13 47 -27 92 -31 100 -3 8 -7
20 -9 27 -1 6 -7 28 -14 47 l-12 36 -579 0 -580 0 5 -42z"/>
<path d="M5872 9651 c-7 -4 -32 -6 -57 -5 -25 1 -47 -1 -50 -6 -6 -10 -38
-167 -39 -192 0 -10 -3 -18 -6 -18 -4 0 -7 -6 -7 -12 0 -7 -4 -29 -7 -48 -6
-33 -50 -266 -61 -320 -3 -14 -8 -38 -12 -55 -3 -16 -8 -39 -9 -50 -1 -11 -9
-48 -18 -82 -8 -33 -17 -76 -20 -95 -2 -18 -7 -42 -10 -53 -8 -29 -57 -294
-59 -316 -1 -11 -4 -19 -7 -19 -5 0 -10 -33 -13 -77 0 -7 -4 -13 -9 -13 -4 0
-8 -5 -8 -11 0 -5 6 -7 13 -3 9 6 9 4 1 -7 -6 -8 -23 -79 -38 -159 -15 -80
-32 -167 -38 -195 -6 -27 -12 -59 -14 -70 -1 -11 -14 -72 -28 -135 -14 -63
-27 -126 -30 -140 -2 -14 -16 -86 -30 -160 -14 -74 -28 -146 -30 -160 -2 -14
-5 -25 -6 -25 -1 0 -3 -9 -5 -20 -6 -30 -66 -327 -71 -350 -2 -11 -7 -40 -10
-65 -3 -25 -9 -47 -13 -50 -3 -3 -7 -16 -7 -30 -2 -29 -9 -66 -24 -130 -7 -25
-14 -56 -16 -70 -3 -14 -14 -74 -26 -135 -11 -60 -22 -117 -23 -125 -1 -8 -6
-33 -10 -55 -4 -22 -9 -47 -10 -55 -2 -8 -8 -34 -13 -57 -5 -23 -7 -44 -4 -48
3 -3 1 -5 -4 -5 -5 0 -10 -8 -11 -17 -1 -10 -4 -29 -6 -43 -3 -14 -16 -86 -31
-160 -14 -74 -28 -148 -30 -165 -3 -16 -8 -42 -12 -57 l-6 -28 74 0 c312 0
1948 0 2041 0 l119 0 -7 73 c-3 39 -8 92 -10 117 -3 25 -7 72 -10 105 -3 33
-7 80 -10 105 -3 25 -7 79 -11 120 -3 41 -8 89 -10 105 -8 76 -16 164 -17 207
-1 27 -5 48 -8 48 -3 0 -5 14 -4 30 1 17 -2 33 -8 37 -5 3 -3 9 4 14 8 5 9 9
4 9 -6 0 -11 24 -10 55 0 30 -3 55 -6 55 -3 0 -6 21 -8 48 -1 26 -4 61 -6 77
-2 17 -6 68 -10 115 -4 47 -8 99 -10 115 -4 36 -15 153 -20 215 -12 135 -18
188 -21 220 -3 19 -6 56 -7 82 -1 27 -4 48 -7 48 -3 0 -6 30 -5 66 0 36 -3 68
-7 70 -3 2 -5 12 -3 22 1 9 -2 23 -8 30 -6 8 -6 12 2 12 7 0 9 5 5 12 -5 7 -9
26 -11 43 -9 120 -13 164 -17 190 -3 17 -8 66 -11 110 -3 44 -8 96 -10 115 -2
19 -7 63 -10 98 -3 34 -7 90 -10 125 -3 34 -8 78 -10 97 -5 45 -17 164 -20
215 -2 22 -4 42 -5 45 -1 3 -2 20 -2 38 0 17 -5 32 -11 32 -5 0 -4 6 2 14 7 8
8 17 3 20 -4 2 -9 24 -11 48 -1 24 -4 59 -6 78 -2 19 -6 64 -9 100 -6 69 -15
162 -21 220 -2 19 -7 67 -10 105 -3 39 -8 92 -10 118 -6 63 -9 66 -55 64 -22
-2 -40 1 -40 6 0 4 -6 5 -12 1 -17 -11 -148 -11 -148 -1 0 4 -6 5 -12 1 -17
-11 -148 -11 -148 -1 0 4 -6 5 -12 1 -17 -11 -148 -11 -148 -1 0 4 -6 5 -12 0
-17 -10 -198 -10 -198 0 0 5 -6 5 -12 0 -16 -9 -101 -10 -108 -1 -3 4 -11 4
-18 -1z"/>
<path d="M4337 8835 c-40 -65 -75 -127 -79 -137 -4 -10 -12 -18 -18 -18 -6 0
-9 -4 -6 -9 3 -5 -3 -19 -13 -32 -10 -13 -30 -46 -45 -74 -30 -56 -48 -88 -57
-95 -3 -3 -25 -41 -49 -85 -24 -44 -47 -82 -50 -85 -4 -3 -22 -32 -41 -65 -18
-33 -41 -71 -51 -84 -10 -13 -15 -27 -12 -32 3 -5 1 -9 -5 -9 -5 0 -16 -12
-24 -27 -25 -48 -101 -178 -107 -183 -3 -3 -24 -36 -45 -75 -62 -109 -229
-390 -274 -460 -14 -22 -36 -60 -49 -85 -14 -25 -30 -52 -36 -60 -7 -8 -17
-27 -24 -42 -6 -16 -16 -28 -22 -28 -5 0 -9 -3 -8 -7 1 -5 -5 -19 -13 -33 -9
-14 -42 -70 -75 -125 -32 -55 -67 -113 -76 -130 -10 -16 -24 -41 -30 -55 -7
-14 -15 -27 -18 -30 -3 -3 -27 -41 -53 -85 -25 -44 -51 -86 -57 -92 -6 -7 -7
-13 -3 -13 4 0 0 -5 -10 -11 -9 -6 -15 -14 -12 -20 4 -5 3 -9 -2 -9 -4 0 -19
-23 -33 -51 -13 -27 -33 -59 -43 -69 -10 -11 -15 -20 -12 -20 3 0 -10 -24 -30
-52 -19 -29 -35 -56 -35 -61 0 -7 -49 -86 -60 -97 -3 -3 -18 -30 -34 -60 -16
-30 -45 -80 -65 -110 -19 -30 -44 -71 -54 -90 -28 -52 -90 -154 -96 -160 -3
-3 -13 -18 -21 -35 -15 -31 -61 -106 -70 -115 -6 -6 -50 -85 -65 -117 -5 -13
-13 -23 -17 -23 -5 0 -8 -6 -8 -14 0 -8 -6 -21 -13 -28 -7 -7 -27 -39 -45 -70
-17 -32 -48 -83 -68 -115 -33 -51 -59 -96 -98 -168 -6 -11 -13 -22 -16 -25 -8
-7 -80 -131 -80 -137 0 -3 -9 -18 -20 -33 -25 -35 -20 -37 93 -35 53 0 87 -3
87 -10 0 -7 3 -7 8 0 10 14 232 14 232 0 0 -7 3 -7 8 0 10 14 384 14 394 0 5
-6 8 -6 8 0 0 6 44 10 115 10 71 0 115 -4 115 -10 0 -7 3 -6 8 0 9 14 225 14
234 0 5 -6 8 -7 8 0 0 6 44 10 115 10 71 0 115 -4 115 -10 0 -7 3 -6 8 0 9 14
225 14 234 0 5 -6 8 -7 8 0 0 6 44 10 115 10 71 0 115 -4 115 -10 0 -7 3 -6 8
0 9 14 225 14 234 0 5 -7 8 -7 8 1 0 6 29 10 75 9 41 -1 75 -1 75 0 0 1 9 44
21 96 11 52 22 105 24 119 1 14 8 45 16 70 7 25 14 52 15 60 2 8 14 69 28 135
15 66 28 134 31 150 9 51 26 129 33 145 3 8 7 22 8 30 2 8 6 29 9 45 3 17 7
39 8 50 1 11 4 22 7 25 5 5 72 325 73 348 0 6 3 12 7 12 5 0 10 32 13 78 0 6
3 12 7 12 3 0 6 8 7 18 1 9 4 31 7 47 44 203 59 275 63 300 2 17 11 51 18 78
8 26 11 47 8 47 -3 0 0 7 7 15 7 9 10 18 7 21 -3 3 -1 20 4 37 6 18 12 43 15
57 2 14 13 68 24 120 11 52 22 109 25 127 3 18 9 43 15 57 5 15 7 26 4 26 -4
0 -2 6 3 13 6 6 9 22 8 35 -1 12 1 22 5 22 3 0 6 10 7 23 0 12 8 47 16 77 14
49 30 130 44 215 3 17 9 35 14 41 5 6 6 14 3 17 -3 3 -3 11 2 18 6 11 14 55
17 102 1 9 5 17 9 17 4 0 5 9 3 20 -2 11 1 20 6 20 6 0 9 8 7 18 -1 9 0 22 4
27 3 6 9 29 12 51 4 22 9 51 11 64 3 14 10 48 16 75 14 65 17 80 19 80 1 0 3
11 5 25 7 51 23 126 32 150 3 8 7 22 9 30 2 8 22 103 44 210 22 107 42 203 43
212 2 10 6 20 9 24 4 3 4 12 1 20 -3 8 -1 14 5 14 5 0 9 6 9 13 -1 6 4 38 12
70 7 32 10 61 6 65 -3 4 -204 7 -446 7 l-440 0 -72 -120z"/>
<path d="M1165 3633 c-21 -6 -73 -43 -60 -43 5 0 0 -9 -10 -20 -10 -11 -14
-20 -10 -20 5 0 4 -5 -3 -12 -7 -7 -8 -17 -1 -30 5 -10 7 -18 3 -18 -3 0 -2
-6 4 -13 6 -7 14 -33 18 -57 4 -25 11 -50 16 -57 5 -6 10 -32 11 -57 1 -25 6
-46 11 -46 4 0 6 -9 3 -20 -3 -11 -2 -20 3 -20 4 0 6 -13 4 -30 -2 -16 0 -30
5 -30 4 0 9 -21 10 -47 2 -27 3 -54 4 -60 0 -7 4 -13 8 -13 5 0 7 -16 5 -35
-1 -20 2 -35 8 -35 6 0 5 -4 -3 -9 -9 -6 -10 -11 -2 -15 6 -4 11 -14 11 -22 0
-25 40 -105 50 -99 5 3 12 -4 15 -16 4 -11 9 -18 12 -16 2 3 15 -6 29 -20 14
-14 31 -22 40 -19 8 3 13 2 10 -3 -7 -10 85 -35 127 -34 15 0 27 -3 27 -6 0
-4 15 -7 33 -8 124 -3 156 -7 150 -17 -4 -6 1 -5 11 3 15 13 19 13 27 0 5 -8
9 -9 9 -4 0 6 9 11 20 11 11 0 20 -4 20 -9 0 -5 6 -4 14 2 11 9 15 9 19 -1 4
-9 6 -9 6 2 1 13 3 13 10 1 8 -12 12 -12 24 -2 11 8 17 9 22 1 3 -6 12 -7 18
-3 15 9 49 9 65 -1 7 -4 12 -2 12 5 0 8 4 8 15 -1 12 -10 15 -10 15 1 0 12 2
12 9 1 4 -8 12 -14 16 -14 4 0 12 6 16 14 7 10 9 10 9 0 0 -10 5 -10 20 -2 15
8 20 8 20 -2 0 -8 3 -9 8 -3 10 14 32 17 32 4 0 -8 5 -7 16 2 13 10 17 10 25
-2 5 -8 9 -9 9 -2 0 7 14 10 38 9 20 -2 41 -1 46 2 5 3 30 5 55 5 25 -1 52 4
60 11 12 9 13 8 6 -4 -7 -13 -6 -13 7 -2 12 9 18 10 23 2 5 -8 11 -8 21 1 7 6
21 9 29 5 8 -3 15 -1 15 5 0 6 8 5 21 -2 15 -8 19 -8 15 0 -4 7 1 12 13 12 12
1 26 3 31 4 6 1 17 3 26 4 8 0 13 5 9 10 -3 5 3 12 13 15 17 6 23 27 24 86 1
37 -13 90 -22 85 -4 -3 -10 1 -13 9 -3 7 -17 14 -31 15 -75 4 -116 0 -109 -12
4 -6 1 -7 -8 -2 -19 12 -49 14 -55 3 -3 -5 -12 -4 -20 3 -8 6 -14 7 -14 2 0
-5 -18 -9 -40 -8 -23 1 -43 -2 -46 -7 -3 -5 -12 -4 -20 3 -11 9 -14 8 -14 -2
0 -11 -2 -11 -10 1 -8 12 -10 12 -10 1 0 -10 -3 -11 -14 -2 -10 8 -16 9 -21 1
-3 -5 -11 -10 -16 -10 -6 0 -7 6 -3 13 6 9 5 9 -7 0 -8 -6 -35 -10 -62 -9 -26
1 -53 -1 -59 -5 -7 -4 -20 -3 -30 2 -12 6 -18 6 -18 0 0 -7 -8 -7 -22 -2 -13
5 -33 5 -45 0 -13 -5 -25 -4 -28 2 -4 5 -12 6 -18 2 -20 -12 -37 -12 -37 0 0
8 -3 8 -8 2 -8 -11 -42 -16 -42 -6 0 3 -24 6 -52 5 -29 -1 -59 4 -67 10 -12 9
-13 8 -6 -3 6 -11 4 -13 -11 -7 -10 5 -47 9 -81 10 -35 0 -63 4 -63 9 0 4 -12
7 -26 7 -18 0 -25 4 -21 14 3 8 3 16 0 19 -3 3 -7 30 -9 59 -7 89 -11 119 -18
125 -3 3 0 13 7 21 7 10 7 13 1 9 -7 -4 -14 8 -18 36 -4 23 -9 53 -12 67 -3
14 -7 34 -8 45 -2 11 -7 28 -10 37 -4 9 -9 22 -10 30 -14 63 -20 79 -27 84 -4
2 -5 12 -2 21 5 12 3 14 -7 8 -10 -6 -12 -4 -7 8 3 10 2 17 -3 17 -6 0 -10 6
-10 13 0 19 -58 60 -75 53 -8 -3 -17 -1 -20 4 -6 10 -36 11 -70 3z"/>
<path d="M5039 3551 c-2 -6 -35 -12 -76 -14 -40 -2 -76 -6 -79 -10 -4 -3 -14
-2 -24 3 -10 5 -20 6 -24 3 -3 -4 -30 -8 -59 -9 -28 -1 -52 -3 -52 -4 0 -1 -8
-3 -18 -5 -9 -2 -14 1 -11 6 5 9 -17 6 -70 -8 -13 -4 -16 -1 -11 7 6 9 4 11
-6 4 -8 -4 -45 -9 -84 -10 -38 -1 -70 -3 -70 -4 0 -1 -28 -2 -63 -3 -36 -1
-62 2 -62 8 0 7 -3 7 -8 0 -4 -5 -43 -11 -87 -12 -258 -6 -284 -7 -277 -17 3
-6 -1 -6 -9 1 -9 7 -30 13 -47 15 -18 1 -32 6 -32 10 0 4 -9 5 -20 3 -11 -2
-20 2 -20 8 0 7 -4 6 -10 -3 -6 -10 -10 -11 -10 -2 0 6 -7 12 -15 12 -8 0 -15
-5 -15 -10 0 -7 -7 -7 -21 1 -15 8 -19 8 -15 0 4 -6 2 -11 -4 -11 -15 0 -41
-26 -33 -34 4 -3 2 -6 -4 -6 -5 0 -10 -7 -10 -15 0 -8 5 -15 11 -15 7 0 6 -3
-1 -8 -17 -10 7 -77 38 -111 13 -13 23 -29 21 -35 -2 -6 -1 -8 3 -4 8 8 67
-11 61 -21 -2 -3 8 -7 22 -7 15 -1 43 -2 62 -3 19 -1 44 0 55 2 11 2 30 1 42
-4 12 -5 25 -5 27 0 3 4 30 7 60 6 31 -2 53 2 50 7 -7 11 19 6 28 -6 4 -6 14
-4 24 5 11 9 15 9 10 2 -9 -15 -9 -15 32 -4 20 6 30 6 27 0 -4 -5 -1 -9 4 -9
6 0 11 3 11 8 0 11 84 9 92 -3 5 -7 8 -6 8 0 0 6 32 12 77 13 42 2 80 5 84 8
4 2 11 0 14 -6 4 -7 11 -7 18 -2 10 8 52 12 160 15 15 0 27 5 27 11 0 6 4 5 9
-3 7 -10 13 -11 30 -2 14 8 21 8 21 1 0 -7 7 -7 21 1 17 9 20 8 14 -2 -6 -8
-4 -10 4 -4 7 4 50 9 94 12 45 2 83 6 86 9 2 2 11 -2 19 -9 13 -10 14 -9 8 1
-6 9 -1 11 18 8 14 -3 30 -7 36 -11 5 -3 10 0 10 7 0 9 3 9 10 -2 6 -10 10
-11 10 -3 0 9 7 10 23 4 13 -5 30 -5 37 -1 8 5 18 6 22 4 4 -3 8 0 8 5 0 6 5
11 11 11 13 0 69 61 69 75 0 6 -5 3 -10 -5 -6 -9 -10 -10 -10 -3 0 6 4 14 9
17 11 7 7 54 -7 88 -23 55 -42 65 -123 64 -41 -1 -80 -5 -88 -10 -10 -6 -12
-6 -7 2 4 7 3 12 -3 12 -5 0 -12 -6 -14 -12 -4 -10 -8 -10 -15 1 -6 9 -11 10
-13 2z"/>
<path d="M6672 3402 c-18 -2 -30 -8 -27 -13 4 -5 -2 -9 -12 -9 -18 0 -54 -39
-60 -63 -6 -29 -30 -87 -34 -83 -3 3 -6 -3 -7 -12 -4 -38 -22 -86 -54 -146 -6
-12 -6 -16 1 -12 7 4 8 1 5 -8 -3 -9 -9 -16 -13 -16 -4 0 -8 -7 -9 -15 -1 -8
-3 -22 -4 -30 -1 -8 -6 -15 -11 -15 -6 0 -7 -3 -4 -7 4 -3 2 -12 -4 -20 -6 -7
-8 -13 -4 -13 4 0 2 -7 -5 -15 -7 -8 -9 -15 -5 -15 4 0 2 -7 -5 -15 -6 -8 -8
-20 -4 -26 4 -7 3 -9 -3 -6 -5 3 -16 -16 -23 -43 -8 -28 -18 -50 -22 -50 -5 0
-7 -4 -4 -8 2 -4 -4 -27 -15 -51 -10 -24 -16 -47 -13 -52 3 -5 0 -9 -6 -9 -6
0 -8 -4 -5 -10 3 -5 2 -10 -4 -10 -6 0 -8 -7 -5 -15 4 -8 1 -15 -6 -15 -6 0
-9 -4 -5 -9 3 -5 1 -12 -5 -16 -5 -3 -10 -15 -10 -26 0 -10 -6 -19 -12 -19 -9
0 -8 -4 2 -10 8 -5 10 -10 4 -10 -6 0 -17 -19 -23 -42 -7 -24 -16 -47 -21 -53
-6 -9 -22 -57 -24 -77 -1 -3 -4 -10 -8 -14 -5 -4 -8 -16 -8 -26 0 -10 -4 -18
-10 -18 -5 0 -9 -3 -8 -7 3 -12 -23 -86 -36 -102 -8 -11 -8 -13 1 -8 8 5 7 -2
-2 -20 -8 -15 -15 -36 -15 -46 0 -10 -4 -16 -9 -13 -7 5 -17 -26 -23 -71 -1
-7 -5 -13 -10 -13 -6 0 -8 -6 -5 -12 2 -7 -5 -28 -15 -46 -10 -18 -16 -37 -13
-42 3 -4 0 -10 -6 -12 -7 -2 -13 -15 -15 -28 -1 -14 -10 -43 -20 -65 -10 -22
-17 -46 -15 -52 1 -7 -3 -13 -9 -13 -5 0 -9 -3 -8 -7 4 -15 -14 -93 -21 -93
-8 0 -10 -23 -11 -119 0 -64 3 -77 22 -95 25 -24 87 -29 95 -9 3 7 11 13 19
13 8 0 13 4 12 8 -2 5 13 23 32 41 19 19 28 30 20 27 -13 -7 -13 -6 0 6 8 7
24 31 35 53 11 22 23 42 26 45 8 7 25 55 28 81 0 5 5 8 9 5 4 -2 9 7 10 21 1
14 6 31 12 38 5 6 7 15 3 18 -3 4 -1 12 5 19 15 19 51 126 44 132 -3 3 1 6 8
6 7 0 10 3 7 6 -3 4 -2 15 4 26 6 11 12 29 14 40 3 11 7 23 10 26 3 3 61 6
128 7 68 1 129 5 135 9 7 4 12 2 12 -4 0 -6 5 -8 11 -5 16 10 109 11 109 1 0
-5 6 -4 13 1 6 6 28 8 47 6 42 -5 47 -5 83 1 15 2 27 0 27 -6 0 -7 4 -7 13 -1
10 8 66 10 98 4 6 -1 20 -43 19 -56 0 -3 7 -20 17 -38 9 -17 18 -35 19 -39 1
-5 2 -9 4 -10 1 -2 4 -16 6 -33 3 -16 9 -32 15 -35 5 -4 10 -18 11 -33 1 -15
5 -27 9 -27 6 0 12 -20 25 -80 1 -8 8 -16 13 -18 6 -2 11 -12 11 -22 0 -20 37
-90 55 -102 5 -4 6 -8 2 -8 -8 0 3 -15 41 -56 12 -14 22 -29 22 -34 0 -5 9
-12 20 -15 11 -3 20 -11 20 -16 0 -6 5 -7 10 -4 6 3 10 2 10 -3 0 -15 71 -7
81 9 5 8 9 21 9 30 0 9 3 19 7 23 11 10 10 95 -1 89 -5 -4 -7 3 -4 15 4 12 3
24 -1 26 -4 3 -8 19 -9 37 -2 18 -8 37 -15 41 -9 6 -8 8 3 8 12 0 12 2 2 8 -7
5 -15 21 -18 37 -3 16 -8 33 -12 39 -4 6 -7 13 -8 16 -1 3 -5 20 -9 37 -4 18
-10 31 -14 29 -3 -2 -7 6 -7 17 -1 26 -26 90 -37 98 -5 3 -8 9 -7 13 1 4 -1
17 -5 29 -4 12 -6 31 -6 42 2 17 0 17 -8 5 -9 -12 -11 -10 -11 10 0 15 -5 31
-12 38 -7 7 -9 12 -5 12 4 0 3 9 -3 21 -6 11 -13 29 -15 39 -2 11 -11 35 -20
53 -9 19 -17 44 -18 56 -1 11 -4 21 -8 21 -6 0 -11 14 -18 45 -1 6 -9 21 -18
34 -8 13 -10 21 -5 17 6 -3 2 11 -8 31 -10 21 -16 41 -13 45 2 5 -1 8 -6 8 -6
0 -10 3 -10 8 3 15 -14 72 -21 72 -4 0 -11 15 -15 33 -7 30 -9 36 -15 55 -1 4
-2 10 -1 15 0 4 -3 7 -9 7 -5 0 -10 11 -10 25 0 14 -5 25 -11 25 -5 0 -7 5 -4
10 3 6 1 10 -4 10 -6 0 -10 3 -9 8 4 18 -15 81 -23 76 -5 -3 -9 8 -9 23 0 16
-5 34 -12 41 -7 7 -8 12 -4 12 5 0 4 6 -1 13 -10 12 -37 87 -35 97 0 3 -7 13
-15 23 -9 9 -12 17 -7 17 5 0 2 5 -6 10 -9 6 -11 10 -3 10 7 0 10 7 7 15 -4 8
-9 13 -13 11 -4 -3 -8 7 -9 20 -1 14 -9 38 -17 54 -9 17 -13 30 -10 30 4 0 -4
14 -16 32 -13 17 -18 29 -13 25 6 -3 11 0 11 8 0 8 -4 12 -9 9 -4 -3 -9 0 -9
5 -1 6 -3 16 -4 21 -1 6 -3 18 -4 28 -1 15 -3 15 -12 2 -9 -12 -10 -11 -6 5 8
42 -67 75 -151 67z m46 -419 c0 -5 2 -17 6 -28 24 -64 28 -75 27 -80 -1 -3 6
-19 14 -35 9 -17 13 -30 10 -30 -3 0 1 -13 9 -29 9 -16 12 -31 9 -35 -4 -3 -2
-6 4 -6 5 0 10 -6 11 -12 2 -23 7 -43 15 -56 5 -7 11 -24 13 -39 3 -15 10 -33
16 -40 6 -7 7 -13 3 -13 -4 0 -2 -6 4 -13 6 -8 12 -23 14 -34 2 -12 9 -29 17
-39 8 -10 10 -15 3 -11 -8 5 -7 -2 2 -20 8 -15 15 -37 15 -48 0 -11 7 -29 15
-39 8 -11 15 -30 15 -43 0 -13 4 -23 10 -23 5 0 7 -7 4 -15 -4 -9 0 -15 7 -15
11 0 11 -2 -1 -10 -9 -6 -17 -5 -22 3 -5 8 -8 8 -8 1 0 -8 -29 -11 -88 -11
-49 0 -94 -3 -100 -7 -7 -4 -12 -4 -12 1 0 4 -18 8 -40 8 -22 0 -40 -3 -40 -7
0 -5 -5 -8 -11 -8 -5 0 -7 4 -4 10 4 7 -3 7 -19 0 -19 -7 -26 -6 -26 3 0 7 -3
8 -8 2 -9 -12 -46 -20 -39 -8 3 5 -3 9 -14 9 -10 0 -19 -3 -19 -6 0 -3 -13 -5
-29 -5 -26 -1 -28 2 -24 30 3 16 10 33 16 37 7 4 8 8 3 8 -5 0 -3 7 4 15 9 11
10 15 1 15 -8 0 -7 6 3 16 9 8 17 20 17 25 4 30 30 102 43 118 8 12 8 13 -2 7
-11 -7 -11 -4 0 15 7 13 15 26 18 29 3 3 6 14 8 25 4 27 11 50 37 110 7 17 16
45 20 63 4 17 11 32 16 32 6 0 7 5 4 10 -4 6 -1 17 5 25 7 8 9 15 5 15 -4 0
-3 6 3 13 5 6 13 27 17 45 3 18 10 30 14 28 4 -3 6 8 5 25 -1 19 3 29 12 29 8
0 13 -3 12 -7z"/>
<path d="M8246 3403 c-1 -1 -33 -3 -71 -4 -39 -1 -73 -7 -77 -13 -6 -8 -8 -8
-8 0 0 11 -40 11 -59 0 -5 -4 -13 -2 -16 4 -5 8 -11 7 -21 -1 -11 -9 -17 -9
-28 0 -9 7 -17 8 -20 2 -3 -5 -36 -9 -74 -9 -112 0 -118 -1 -145 -26 -14 -13
-29 -21 -34 -17 -4 3 -1 -3 7 -13 10 -13 10 -17 3 -12 -9 5 -13 -1 -14 -21 -2
-46 3 -88 10 -93 6 -5 9 -14 14 -49 2 -11 9 -26 16 -35 11 -13 11 -16 0 -16
-11 0 -11 -2 1 -10 8 -5 11 -10 6 -10 -5 0 -4 -6 1 -12 10 -12 17 -85 15 -155
-1 -19 4 -33 11 -33 8 0 8 -3 2 -8 -14 -10 -15 -42 -1 -42 6 0 4 -5 -4 -10
-13 -9 -13 -10 0 -10 13 0 13 -1 0 -10 -8 -5 -10 -10 -5 -10 6 0 11 -13 11
-30 1 -20 -2 -27 -10 -23 -6 4 -6 0 2 -9 10 -12 14 -117 17 -447 3 -238 7
-436 10 -442 4 -5 1 -9 -6 -9 -8 0 -8 -4 -1 -13 6 -7 7 -18 3 -26 -4 -7 -5
-30 -1 -52 4 -22 3 -42 -1 -45 -5 -3 -6 -10 -3 -16 6 -9 11 -55 16 -125 1 -7
5 -13 10 -13 4 0 8 -9 8 -20 0 -12 7 -20 17 -20 9 0 13 -3 10 -6 -8 -8 43 -54
60 -54 6 0 13 -5 15 -11 2 -5 18 -11 36 -11 17 -1 32 -5 32 -9 0 -5 11 -4 25
1 13 5 26 6 29 2 6 -10 79 -8 95 2 6 4 11 3 11 -2 0 -10 30 -9 47 1 6 4 14 3
18 -3 4 -6 12 -7 18 -3 11 7 81 13 175 14 28 0 40 4 36 11 -5 7 -2 8 7 3 16
-10 50 -12 64 -3 6 3 28 7 50 9 22 2 43 8 47 14 5 6 8 5 8 -3 0 -9 5 -10 19
-3 10 6 21 7 25 4 3 -3 6 -1 6 6 0 7 4 10 8 7 9 -5 67 13 91 28 11 7 12 6 6
-5 -5 -8 2 -5 14 6 13 11 25 19 27 18 11 -7 24 -2 19 7 -3 6 1 7 9 4 9 -3 16
-1 16 5 0 6 7 11 15 11 8 0 15 5 15 10 0 6 5 10 11 10 6 0 16 6 23 13 8 6 23
18 34 26 12 8 19 18 16 22 -2 4 5 10 16 14 11 3 20 13 20 21 0 8 8 14 18 14
13 0 14 2 4 9 -11 7 -11 9 2 14 9 4 16 13 16 22 0 8 5 15 12 15 6 0 8 3 5 7
-4 3 -2 12 3 19 6 6 12 20 14 30 8 41 11 49 19 55 4 3 8 24 10 47 1 23 4 42 7
42 8 0 4 65 -4 78 -4 7 -2 12 4 12 6 0 8 5 3 13 -4 6 -9 18 -10 25 -2 6 -4 18
-6 25 -1 6 -7 18 -11 26 -6 10 -5 12 2 7 12 -7 -51 125 -71 151 -28 35 -113
113 -129 119 -10 3 -18 10 -18 15 0 6 -4 7 -10 4 -5 -3 -10 -2 -10 3 0 9 -9
13 -45 21 -5 1 -19 10 -29 19 -11 10 -16 11 -12 4 7 -11 4 -12 -11 -3 -11 6
-23 8 -25 5 -3 -3 -8 2 -11 11 -5 11 0 15 19 15 17 0 23 4 18 12 -5 8 -2 9 9
5 10 -3 17 -2 17 3 0 6 5 10 11 10 7 0 18 8 26 18 8 10 11 11 7 2 -4 -8 10 1
32 20 22 19 40 36 38 38 -1 2 9 14 22 27 13 13 24 31 24 40 0 10 5 13 13 9 6
-4 9 -4 5 0 -3 4 5 33 18 63 21 46 25 73 25 147 1 121 1 123 -16 166 -1 3 -6
20 -10 37 -4 18 -14 38 -21 44 -8 6 -14 17 -14 24 0 11 -7 21 -51 72 -37 43
-127 103 -155 103 -8 0 -14 4 -14 8 0 4 -21 14 -47 21 -27 8 -52 17 -58 20
-13 7 -18 8 -56 10 -21 1 -28 5 -23 14 5 8 2 8 -9 -2 -11 -9 -17 -10 -17 -2 0
7 -17 11 -42 11 -24 0 -83 1 -131 3 -49 1 -89 1 -91 0z m34 -233 c9 5 19 5 27
-2 10 -8 13 -7 13 3 0 9 3 10 8 4 10 -14 32 -17 32 -4 0 8 4 8 13 2 6 -6 26
-11 42 -11 17 0 50 -5 74 -11 25 -5 49 -7 53 -5 5 3 7 0 6 -7 -2 -6 3 -14 11
-17 9 -3 11 0 6 9 -5 8 1 5 13 -5 12 -11 22 -16 22 -12 0 7 14 -4 61 -46 16
-15 29 -32 29 -38 0 -6 5 -8 10 -5 6 3 10 -2 10 -12 0 -11 4 -23 9 -28 6 -6
11 -22 13 -37 2 -15 7 -30 10 -34 4 -3 3 -17 -2 -30 -7 -16 -6 -24 1 -24 7 0
8 -7 4 -17 -4 -10 -8 -28 -8 -40 -1 -13 -4 -23 -8 -23 -4 0 -10 -11 -13 -25
-6 -24 -67 -95 -81 -95 -3 0 -13 -7 -21 -15 -9 -8 -24 -15 -35 -15 -13 0 -17
-4 -13 -11 4 -7 1 -10 -7 -7 -8 3 -29 -1 -46 -9 -18 -7 -33 -10 -33 -7 0 4 -6
2 -12 -3 -7 -6 -21 -9 -30 -8 -10 2 -20 -1 -24 -6 -3 -5 -12 -9 -20 -9 -10 0
-12 5 -8 13 5 8 2 7 -9 -2 -10 -8 -20 -11 -24 -8 -3 4 -14 2 -24 -3 -12 -7
-20 -7 -24 0 -4 6 -12 7 -18 3 -7 -4 -41 -8 -77 -8 -36 0 -68 -4 -72 -10 -5
-6 -8 -5 -8 3 0 7 -4 11 -8 8 -18 -11 -62 -14 -68 -5 -3 5 -10 7 -15 4 -9 -6
-13 34 -12 118 0 20 -4 37 -9 37 -4 0 -8 5 -8 11 0 5 5 7 12 3 7 -5 8 -3 3 6
-14 22 -16 92 -3 84 7 -5 8 -3 2 7 -5 8 -9 28 -10 44 -7 133 -14 235 -19 248
-8 20 1 25 55 28 25 1 51 7 59 13 11 8 13 8 7 -1 -4 -8 -1 -13 9 -13 10 0 13
5 9 13 -6 9 -5 9 8 0 8 -7 17 -11 20 -8 2 3 23 6 46 7 27 1 39 5 35 12 -4 6
-1 6 8 -1 9 -7 20 -9 29 -3z m-187 -844 c-4 -6 1 -5 11 3 15 13 19 13 27 0 5
-8 9 -9 9 -2 0 12 24 12 36 0 4 -4 13 -2 21 4 10 9 13 8 13 -2 0 -11 2 -11 10
1 8 12 10 12 10 1 0 -10 3 -11 13 -2 8 6 17 8 21 3 4 -4 40 -8 79 -9 104 -3
181 -11 210 -22 14 -5 28 -7 31 -4 3 4 6 2 6 -3 0 -5 12 -11 27 -12 15 -1 29
-6 32 -10 3 -5 21 -15 39 -23 17 -8 32 -17 32 -20 0 -4 9 -9 21 -12 12 -3 18
-10 15 -16 -4 -5 3 -12 14 -16 11 -3 20 -13 20 -21 0 -8 5 -14 10 -14 6 0 10
-7 10 -15 0 -8 5 -15 11 -15 6 0 8 -9 4 -20 -4 -11 -2 -20 4 -20 11 0 11 -6
10 -90 0 -65 -2 -80 -11 -80 -4 0 -5 -9 -3 -20 2 -11 0 -18 -6 -15 -5 4 -9 -3
-9 -15 0 -11 -9 -28 -19 -37 -11 -9 -18 -20 -15 -25 3 -4 0 -8 -7 -8 -6 0 -22
-12 -35 -27 -13 -15 -26 -24 -30 -21 -3 4 -15 -2 -26 -12 -11 -10 -38 -22 -59
-25 -22 -4 -39 -11 -39 -15 0 -5 -9 -7 -20 -5 -11 2 -20 -1 -20 -7 0 -7 -5 -6
-14 1 -10 8 -16 9 -21 1 -3 -6 -10 -8 -15 -5 -5 3 -11 2 -14 -3 -3 -5 -23 -8
-46 -7 -22 1 -40 -1 -40 -4 0 -3 -11 -6 -25 -6 -14 0 -25 4 -25 9 0 6 -7 1
-15 -10 -8 -10 -15 -13 -15 -7 0 13 -34 13 -46 0 -4 -3 -15 -2 -25 4 -14 7
-19 6 -19 -2 0 -8 -4 -9 -13 0 -10 8 -17 7 -25 -1 -9 -9 -12 -9 -12 1 0 11 -3
11 -15 1 -12 -10 -15 -10 -15 0 0 9 -3 10 -13 1 -8 -6 -17 -8 -20 -4 -4 3 -19
7 -34 8 -21 1 -27 6 -28 29 0 15 3 30 7 32 5 3 5 11 1 17 -10 17 -11 47 -1 47
4 0 8 5 8 11 0 5 -3 8 -8 6 -4 -3 -7 26 -7 63 0 39 4 66 9 63 5 -4 6 0 0 8 -5
8 -9 49 -10 92 0 42 -4 80 -7 83 -4 4 -2 14 3 24 5 10 7 20 4 23 -8 8 -8 162
-1 174 4 6 18 11 32 11 15 0 22 -5 18 -12z"/>
<path d="M10015 3394 c-15 -8 -30 -12 -33 -10 -6 7 -31 -18 -25 -26 2 -5 0 -8
-6 -8 -10 0 -27 -38 -23 -52 1 -5 -2 -8 -7 -8 -9 0 -26 -56 -19 -64 2 -2 -6
-14 -17 -27 -12 -13 -14 -19 -5 -14 12 7 12 5 -1 -11 -9 -10 -15 -27 -14 -37
2 -9 0 -15 -4 -13 -7 5 -36 -81 -33 -96 1 -5 -2 -8 -7 -8 -7 0 -22 -48 -20
-66 0 -4 -4 -10 -10 -13 -5 -4 -13 -22 -16 -41 -3 -19 -10 -37 -15 -40 -4 -3
-11 -22 -15 -43 -4 -20 -11 -37 -16 -37 -5 0 -9 -8 -9 -17 -1 -10 -8 -36 -16
-58 -8 -22 -16 -44 -18 -50 -1 -5 -10 -27 -19 -49 -9 -21 -17 -44 -17 -52 0
-7 -5 -16 -10 -19 -6 -4 -8 -11 -5 -16 4 -5 2 -9 -4 -9 -5 0 -12 -18 -16 -40
-4 -22 -12 -40 -18 -40 -5 0 -8 -3 -4 -6 3 -4 0 -22 -8 -40 -8 -19 -12 -34 -9
-34 3 0 -2 -7 -10 -16 -9 -8 -13 -20 -10 -25 3 -6 -2 -20 -13 -31 -10 -12 -12
-18 -5 -14 7 4 5 -6 -6 -26 -10 -18 -17 -39 -15 -45 3 -7 -1 -13 -7 -13 -7 0
-10 -6 -7 -14 3 -8 2 -16 -3 -18 -5 -2 -11 -12 -13 -23 -5 -25 -15 -54 -28
-77 -5 -10 -9 -27 -9 -37 0 -11 -4 -22 -9 -25 -4 -3 -14 -26 -21 -51 -7 -25
-18 -45 -24 -45 -6 0 -4 -5 4 -10 10 -6 11 -10 3 -10 -7 0 -13 -9 -13 -20 0
-11 -5 -20 -11 -20 -5 0 -8 -3 -6 -7 3 -5 0 -19 -6 -33 -5 -14 -12 -34 -14
-45 -2 -10 -7 -22 -11 -25 -4 -3 -8 -14 -10 -25 -1 -11 -4 -27 -7 -35 -2 -8
-4 -25 -4 -38 -1 -13 -5 -21 -10 -17 -11 6 -7 -28 5 -47 5 -7 3 -8 -6 -3 -10
6 -12 1 -7 -22 3 -17 1 -35 -6 -42 -8 -8 -8 -11 0 -11 6 0 9 -8 6 -18 -2 -11
7 -27 24 -42 25 -22 36 -25 79 -21 21 2 134 130 134 151 0 7 8 19 18 27 9 8
12 12 5 9 -10 -5 23 70 37 84 6 6 18 52 19 78 1 7 6 10 13 6 7 -5 9 -2 5 8 -3
9 -1 20 4 25 6 6 12 25 14 43 3 19 9 37 16 40 6 4 10 10 10 14 -4 29 1 46 11
40 8 -5 9 -2 5 9 -3 9 -2 19 4 23 6 3 8 12 5 19 -2 7 4 21 13 32 15 16 31 19
84 18 42 -1 64 2 60 8 -4 6 -1 7 8 2 17 -11 109 -13 116 -3 2 5 12 4 22 -2 10
-5 21 -7 24 -3 11 10 157 9 161 -2 3 -7 7 -6 13 1 4 5 32 9 60 8 38 -1 51 1
46 9 -5 9 -3 9 8 1 8 -6 23 -10 34 -8 24 4 55 -4 54 -14 -1 -4 0 -9 1 -12 4
-10 11 -41 17 -70 3 -16 9 -27 14 -24 5 3 9 -6 9 -20 0 -14 5 -28 10 -31 6 -4
8 -10 5 -15 -3 -5 -1 -11 5 -15 6 -4 8 -10 5 -15 -3 -5 -1 -11 5 -15 5 -3 10
-21 10 -38 0 -24 3 -28 10 -17 8 12 10 9 10 -11 0 -15 8 -44 17 -65 9 -22 18
-45 19 -53 2 -8 9 -18 16 -22 7 -5 9 -9 3 -9 -7 0 -7 -3 0 -8 6 -4 21 -27 34
-52 14 -25 30 -49 38 -53 7 -4 13 -15 13 -22 0 -8 5 -15 11 -15 17 0 59 -36
51 -44 -3 -4 1 -4 11 0 9 3 23 2 30 -4 13 -10 72 19 61 31 -4 4 -2 12 4 19 11
14 8 99 -7 168 -5 25 -7 48 -5 52 3 5 1 8 -5 8 -6 0 -7 7 -4 17 4 11 3 14 -5
9 -8 -5 -13 1 -14 16 0 13 -2 28 -3 33 -2 6 -4 15 -5 20 -1 6 -2 13 -1 18 0 4
-3 7 -8 7 -5 0 -12 16 -15 35 -4 19 -11 35 -17 35 -6 0 -7 5 -4 10 4 6 2 17
-4 24 -6 7 -12 25 -13 40 -1 14 -5 26 -9 26 -6 0 -11 12 -24 63 -2 4 -4 10 -5
15 -1 4 -2 10 -1 15 0 4 -4 7 -9 7 -6 0 -10 9 -10 19 0 11 -4 22 -10 26 -5 3
-7 12 -3 20 3 8 1 15 -5 15 -6 0 -13 18 -17 40 -4 22 -10 40 -15 40 -4 0 -11
17 -15 38 -4 20 -12 44 -19 52 -7 8 -13 26 -14 40 -1 14 -6 26 -12 28 -5 2 -8
8 -4 13 3 5 0 9 -7 9 -7 0 -9 10 -7 25 3 13 1 22 -3 19 -8 -5 -14 26 -10 49 1
5 -3 6 -9 2 -6 -4 -10 4 -10 18 0 14 -7 30 -15 37 -8 7 -12 16 -9 21 2 5 -4
27 -15 50 -11 23 -18 46 -15 50 3 5 0 9 -7 9 -7 0 -10 3 -6 6 3 4 0 19 -8 34
-8 15 -11 30 -8 34 4 3 1 6 -6 6 -7 0 -10 4 -6 9 3 5 -1 15 -8 23 -7 7 -12 20
-11 28 0 8 -5 25 -13 37 -7 12 -13 31 -13 43 0 11 -5 20 -11 20 -6 0 -9 6 -6
14 3 8 -3 26 -13 39 -11 13 -17 27 -14 30 3 3 -2 19 -11 36 -8 17 -13 31 -10
31 3 0 -1 13 -9 29 -9 16 -12 31 -9 35 4 3 1 6 -6 6 -7 0 -9 5 -6 10 3 6 2 10
-4 10 -5 0 -8 11 -7 25 2 13 -1 22 -5 19 -5 -3 -9 2 -9 10 0 8 -5 27 -12 43
-6 15 -11 31 -10 36 1 4 -3 7 -9 7 -5 0 -7 5 -4 10 3 6 1 10 -5 10 -6 0 -9 4
-5 10 7 12 -25 50 -43 50 -7 0 -11 4 -8 8 3 5 -14 9 -36 11 -23 1 -44 4 -48 6
-4 2 -19 -3 -35 -11z m55 -424 c0 -11 5 -20 11 -20 6 0 9 -9 6 -20 -3 -11 -1
-18 4 -14 5 3 9 -3 9 -13 0 -10 6 -30 14 -45 8 -14 17 -45 21 -67 4 -23 11
-39 15 -36 5 3 8 -3 8 -12 -1 -15 23 -89 50 -153 3 -8 6 -19 7 -25 0 -5 3 -14
6 -20 3 -5 12 -30 19 -55 7 -25 17 -49 21 -55 3 -5 5 -18 4 -28 -2 -9 1 -15 6
-11 7 4 11 -3 9 -18 0 -2 8 -28 19 -59 15 -44 16 -56 5 -56 -7 0 -10 5 -7 11
5 7 2 7 -8 0 -8 -7 -50 -11 -101 -10 -53 1 -88 -3 -88 -9 0 -7 -3 -7 -8 0 -4
6 -24 10 -45 10 -20 0 -37 -4 -37 -10 0 -5 -5 -3 -10 5 -5 8 -10 11 -10 5 0
-6 -37 -10 -90 -10 -87 0 -90 1 -90 23 0 12 5 22 10 22 6 0 9 3 8 8 -3 13 14
73 34 119 11 24 22 56 24 71 3 14 11 33 17 41 7 8 11 16 10 18 -9 11 -1 33 9
27 6 -4 8 -3 5 3 -4 6 2 33 12 61 10 28 16 53 13 56 -3 3 -1 6 5 6 9 0 28 54
24 73 0 4 4 7 9 7 6 0 9 3 8 8 -4 15 12 73 19 69 5 -3 9 9 10 26 2 18 7 33 13
35 6 2 7 8 4 13 -3 6 0 17 8 26 11 14 11 16 -1 8 -10 -5 -12 -4 -7 3 11 19 26
14 26 -8z"/>
<path d="M4820 3242 c-37 -6 -80 -41 -95 -76 -12 -27 -11 -34 3 -50 9 -11 11
-16 4 -12 -9 6 -11 1 -7 -21 18 -91 26 -265 13 -257 -6 4 -6 -1 0 -13 9 -17 7
-19 -31 -20 -23 -1 -54 -4 -69 -6 -16 -3 -28 0 -28 7 0 7 -3 8 -8 1 -4 -6 -23
-10 -42 -10 -19 1 -43 -3 -54 -8 -13 -6 -16 -6 -12 2 4 6 4 11 1 11 -4 0 -16
-5 -27 -11 -14 -8 -18 -8 -14 0 5 7 -6 9 -34 5 -45 -7 -46 -5 -53 71 -3 28 -8
61 -12 75 -4 14 -8 33 -8 42 -1 9 -6 14 -11 11 -5 -4 -7 1 -3 10 3 9 0 23 -8
31 -8 8 -15 19 -15 25 0 6 -5 11 -11 11 -5 0 -8 4 -4 10 3 5 -5 20 -17 32 -13
13 -21 28 -20 33 2 6 0 7 -4 3 -4 -4 -19 1 -34 12 -15 11 -30 17 -34 13 -3 -3
-6 -1 -6 5 0 15 -60 9 -95 -11 -16 -9 -26 -16 -21 -17 5 0 3 -7 -5 -16 -10
-13 -10 -17 2 -25 10 -6 10 -9 2 -9 -7 0 -13 -7 -13 -15 0 -8 4 -15 8 -15 4 0
9 -10 10 -22 2 -26 9 -62 12 -65 2 -2 4 -7 5 -13 1 -5 3 -11 5 -12 3 -5 10
-43 16 -93 3 -27 8 -53 10 -56 7 -11 -61 -27 -81 -19 -13 5 -74 3 -89 -3 -9
-4 -15 -3 -12 2 4 5 -18 9 -47 9 -28 -1 -62 2 -74 6 -13 4 -23 4 -23 -1 0 -5
-18 -8 -40 -6 -24 1 -38 -2 -35 -8 4 -5 0 -9 -8 -9 -17 0 -40 -66 -35 -103 2
-15 12 -37 21 -47 9 -11 17 -25 17 -31 0 -5 5 -7 10 -4 6 3 10 1 10 -4 0 -6 3
-10 8 -10 4 1 10 0 15 -1 4 -1 12 -4 17 -5 6 -1 11 -4 13 -5 1 -1 16 -3 34 -4
18 -1 35 -5 39 -9 4 -4 13 -2 21 4 8 8 13 8 13 1 0 -12 18 -11 39 2 9 6 12 5
8 -1 -10 -15 424 -15 442 0 11 9 13 9 8 1 -9 -15 105 -14 115 1 5 6 8 6 8 -1
0 -11 52 -10 71 1 5 4 9 2 9 -3 0 -5 7 -9 15 -9 8 0 12 4 9 9 -3 4 -1 8 5 8 5
0 13 -5 16 -10 4 -6 13 -7 23 -1 9 4 37 7 62 6 25 -1 48 3 52 9 5 7 8 7 8 -2
0 -8 5 -10 12 -6 17 11 48 12 42 2 -3 -4 0 -8 5 -8 6 0 11 4 11 8 0 4 28 9 63
9 82 2 185 10 222 16 17 3 53 8 80 12 54 6 88 12 93 15 1 2 5 3 10 4 4 1 13 5
20 9 6 5 12 5 12 1 0 -10 35 38 44 61 12 28 13 75 2 75 -5 0 -2 8 5 17 10 11
10 14 2 9 -8 -4 -13 -1 -13 9 0 9 -4 13 -10 10 -5 -3 -10 1 -10 10 0 9 -4 14
-9 11 -5 -4 -11 -1 -13 5 -5 14 -78 19 -78 6 0 -5 -8 -3 -17 4 -11 10 -14 10
-9 2 5 -10 -4 -13 -36 -15 -24 0 -54 -2 -68 -4 -14 -2 -36 -4 -50 -5 -14 -2
-28 -8 -32 -14 -5 -6 -8 -5 -8 3 0 8 -5 10 -12 5 -35 -21 -39 -13 -37 67 1 25
1 52 0 60 -1 8 -1 29 0 45 1 17 1 35 0 40 -1 6 -2 28 -4 50 -1 22 -6 46 -11
54 -7 10 -6 12 3 6 19 -11 -18 57 -42 78 -27 23 -82 36 -127 29z"/>
<path d="M2659 2491 c-3 -7 -68 -11 -191 -13 -104 -2 -188 -5 -188 -8 0 -3
-36 -4 -80 -4 -44 1 -83 -3 -86 -8 -3 -5 -12 -4 -21 3 -11 10 -16 10 -23 0 -6
-11 -9 -11 -13 0 -4 10 -6 10 -6 2 -1 -9 -8 -10 -28 -2 -18 7 -30 6 -37 -1
-13 -13 -29 -13 -21 0 3 6 1 10 -4 10 -6 0 -11 -4 -11 -8 0 -5 -33 -8 -72 -7
-40 1 -79 -3 -85 -8 -9 -6 -13 -6 -13 2 0 9 -5 9 -20 1 -15 -8 -20 -8 -20 1 0
8 -4 9 -13 0 -10 -8 -17 -7 -25 1 -7 7 -12 8 -12 2 0 -6 -7 -11 -15 -11 -8 0
-15 4 -15 9 0 5 -6 6 -12 2 -20 -13 -118 -12 -118 0 0 8 -3 8 -8 0 -9 -14 -84
-13 -94 1 -5 6 -8 6 -8 -2 0 -16 -689 -15 -709 1 -11 8 -13 8 -8 -1 5 -7 0 -9
-13 -6 -11 3 -17 10 -13 17 3 6 0 6 -8 -1 -14 -14 -33 -18 -25 -5 6 10 -76 9
-93 -2 -10 -6 -12 -5 -7 2 12 19 -1 14 -28 -12 -15 -13 -26 -31 -26 -40 0 -9
-6 -16 -12 -16 -9 0 -9 -3 -3 -8 6 -4 12 -18 13 -32 0 -14 6 -26 11 -28 5 -2
8 -9 5 -16 -3 -8 6 -23 20 -34 14 -11 26 -25 26 -32 0 -6 4 -9 9 -6 5 4 11 3
13 -1 1 -5 18 -16 37 -26 25 -13 36 -15 41 -6 6 8 9 8 13 -2 4 -10 6 -10 6 -2
1 9 8 10 27 3 14 -6 29 -8 34 -5 15 9 70 13 64 4 -3 -5 0 -9 5 -9 6 0 11 3 11
8 0 4 11 8 25 8 14 1 22 -2 19 -7 -3 -5 0 -9 5 -9 6 0 11 3 11 8 0 4 65 7 145
7 85 0 145 4 145 9 0 6 5 5 12 -2 7 -7 17 -8 30 -1 12 7 18 6 18 -1 0 -8 6 -8
20 0 14 8 20 8 20 0 0 -6 5 -8 11 -5 18 12 59 13 59 1 0 -7 3 -7 8 -1 9 12 52
13 71 1 9 -6 12 -5 8 1 -9 14 66 13 75 -1 6 -8 8 -7 8 1 0 8 20 12 63 11 35
-1 69 2 75 6 6 3 13 2 16 -3 3 -5 21 -6 38 -2 18 3 80 6 138 5 63 0 108 4 112
10 5 8 8 7 8 -1 0 -9 19 -11 40 -3 15 6 36 4 43 -5 6 -6 10 -6 14 3 2 6 9 12
14 12 6 0 8 -3 5 -8 -2 -4 11 -8 29 -8 19 0 32 3 30 7 -6 9 48 4 65 -6 8 -5
11 -4 7 2 -4 6 49 11 151 12 285 5 307 6 314 16 5 7 8 7 8 0 0 -12 59 -13 78
-1 6 4 20 2 31 -3 14 -8 21 -8 24 2 3 7 6 8 6 1 1 -7 14 -9 39 -5 35 6 55 6
77 1 27 -6 51 -4 57 5 5 6 8 5 8 -3 0 -7 5 -10 10 -7 6 4 22 8 35 11 14 2 41
19 59 37 30 29 33 38 34 90 0 32 -4 55 -9 51 -5 -3 -9 4 -9 15 0 11 -9 22 -20
26 -11 3 -20 10 -20 14 0 13 -123 11 -139 -2 -12 -9 -13 -9 -7 1 4 6 2 12 -3
12 -6 0 -11 -6 -11 -12 0 -10 -3 -9 -9 1 -7 11 -9 11 -14 0 -4 -12 -7 -11 -16
1 -6 9 -11 10 -11 3 0 -12 -17 -12 -36 0 -6 3 -14 3 -18 0 -12 -12 -36 -12
-36 0 0 8 -3 8 -8 2 -9 -13 -85 -15 -93 -3 -4 7 -8 6 -10 -1z"/>
<path d="M5735 2411 c-11 -4 -39 -7 -62 -7 -24 1 -43 -2 -43 -5 0 -3 -26 -4
-57 -3 -32 1 -66 -2 -75 -7 -10 -6 -19 -5 -23 1 -3 5 -11 10 -16 10 -6 0 -8
-3 -6 -7 3 -5 -6 -8 -19 -8 -13 0 -24 3 -24 6 0 8 -32 5 -47 -4 -6 -4 -14 -3
-18 3 -4 6 -13 7 -23 1 -26 -14 -34 -14 -43 1 -5 7 -9 8 -9 2 0 -6 -38 -11
-102 -13 -57 -2 -139 -4 -184 -5 -44 -1 -85 -5 -90 -9 -6 -3 -16 -2 -24 3 -8
5 -21 5 -31 -1 -11 -6 -20 -5 -24 1 -4 6 -13 7 -23 2 -9 -5 -59 -8 -109 -7
-51 0 -93 -3 -93 -7 0 -3 -13 -3 -30 2 -16 5 -30 5 -30 1 0 -4 -9 -7 -20 -8
-11 -1 -18 1 -16 5 3 4 -4 8 -14 8 -10 0 -17 -4 -14 -7 6 -10 -38 -5 -55 6 -8
5 -12 4 -8 -1 3 -5 -51 -9 -126 -9 -73 0 -138 -4 -144 -9 -8 -5 -13 -5 -13 1
0 9 -52 9 -67 0 -5 -3 -15 -2 -22 3 -8 4 -27 4 -42 0 -18 -5 -29 -5 -29 1 0 6
-5 7 -11 3 -15 -9 -369 -11 -369 -2 0 4 -12 3 -28 -1 -15 -5 -37 -4 -50 0 -14
5 -22 5 -22 -2 0 -6 -5 -7 -11 -4 -12 8 -64 18 -96 19 -13 1 -23 4 -23 7 0 9
-73 5 -87 -4 -7 -5 -13 -5 -13 -2 0 4 -8 -1 -17 -11 -10 -10 -16 -18 -13 -19
3 -1 0 -8 -6 -16 -16 -20 -9 -74 15 -119 15 -28 51 -65 51 -53 0 4 4 3 8 -3
13 -20 77 -42 95 -33 10 6 18 5 22 -1 3 -5 11 -10 16 -10 6 0 7 5 3 12 -4 6
-3 8 3 5 17 -10 63 -16 63 -7 0 10 33 8 41 -4 4 -4 16 -3 28 3 15 8 21 9 21 1
0 -6 5 -8 13 -3 16 10 37 13 37 4 0 -5 49 -6 58 -1 8 6 90 2 101 -5 9 -5 12
-4 7 3 -9 14 46 11 56 -3 5 -6 8 -6 8 1 0 7 28 11 78 11 204 2 298 7 311 17
11 8 13 8 8 0 -4 -7 2 -11 18 -11 14 0 25 4 25 9 0 7 5 6 13 -1 10 -8 17 -7
25 1 9 9 12 9 12 -1 0 -10 3 -11 14 -2 10 8 16 9 21 1 4 -6 12 -7 24 -1 20 11
20 12 22 -74 1 -31 6 -58 11 -61 5 -3 4 -11 -2 -19 -8 -10 -8 -15 0 -20 8 -5
8 -11 -1 -21 -9 -11 -9 -14 1 -14 9 0 9 -4 -1 -17 -8 -9 -9 -14 -3 -10 7 4 12
-2 12 -17 0 -21 -4 -23 -55 -22 -30 1 -60 -2 -66 -6 -6 -4 -20 -2 -30 4 -14 7
-17 7 -13 -1 5 -7 -7 -9 -34 -6 -24 3 -38 0 -35 -5 4 -6 -3 -6 -19 0 -14 5
-26 6 -26 2 0 -9 -182 -8 -197 1 -6 4 -15 3 -18 -3 -5 -8 -12 -7 -23 2 -12 10
-14 10 -8 1 9 -16 5 -16 -28 -3 -15 5 -26 6 -26 1 0 -5 -11 -8 -25 -6 -15 1
-29 -4 -35 -14 -6 -10 -9 -11 -10 -3 0 10 -3 10 -14 0 -8 -7 -12 -15 -10 -17
2 -3 -3 -15 -12 -29 -10 -15 -11 -21 -3 -17 8 6 10 4 3 -6 -12 -20 -14 -39 -3
-39 6 0 8 -4 4 -9 -3 -5 0 -13 6 -16 5 -4 8 -12 6 -19 -3 -6 1 -20 9 -30 7
-11 11 -23 8 -27 -3 -5 0 -9 6 -9 6 0 9 -4 6 -9 -3 -5 1 -12 10 -15 8 -3 12
-11 9 -16 -4 -6 -2 -16 3 -23 6 -7 11 -15 11 -19 1 -5 1 -9 2 -10 0 -2 3 -16
5 -33 3 -16 9 -32 13 -35 4 -3 8 -18 8 -35 1 -16 4 -50 8 -75 4 -25 9 -58 11
-75 3 -16 5 -38 5 -47 0 -10 5 -20 10 -24 6 -4 6 -11 -1 -19 -8 -9 -8 -15 0
-20 5 -3 10 -16 10 -29 0 -12 6 -28 13 -35 10 -11 9 -12 -3 -5 -8 4 -5 -5 8
-20 12 -16 22 -34 22 -41 0 -7 7 -16 16 -19 8 -3 13 -10 9 -15 -3 -5 4 -12 15
-16 11 -3 20 -11 20 -16 0 -6 5 -7 10 -4 6 3 10 2 10 -3 0 -6 7 -13 16 -16 9
-3 12 -2 9 4 -4 6 10 1 30 -10 29 -16 40 -18 57 -9 15 8 19 8 14 0 -4 -6 0
-11 9 -11 10 0 14 5 9 13 -6 10 -4 10 7 0 17 -16 43 -17 33 -1 -5 7 -3 8 7 2
8 -5 31 -10 52 -11 21 -1 45 -4 52 -7 8 -3 17 -1 20 5 4 5 11 6 17 3 16 -10
118 -10 118 0 0 5 6 3 14 -3 10 -8 16 -9 21 -1 3 6 11 7 17 4 10 -6 45 -6 178
0 25 1 51 6 59 10 9 6 12 5 8 -1 -4 -6 7 -10 27 -9 19 0 32 4 29 9 -2 4 0 7 6
7 5 0 12 -6 15 -12 5 -10 7 -10 12 0 4 9 9 10 19 2 9 -8 15 -8 20 0 3 5 11 10
16 10 6 0 7 -6 3 -12 -6 -10 -5 -10 7 -1 8 6 32 12 54 12 78 1 141 7 153 15 7
4 12 2 12 -6 0 -9 3 -9 8 -2 4 6 22 17 40 25 18 8 35 22 38 32 3 9 10 14 16
11 7 -4 8 -2 4 5 -4 6 -3 18 3 25 6 7 12 34 13 59 2 26 8 47 13 47 6 0 3 5 -5
10 -8 5 -10 10 -5 10 14 0 15 50 1 50 -7 0 -7 3 -1 8 6 4 11 18 12 32 8 176
17 266 26 272 9 6 9 8 0 8 -6 0 -10 8 -8 18 2 9 4 17 5 17 0 0 2 30 4 67 2 43
-1 65 -7 61 -6 -4 -7 -1 -1 8 11 18 14 69 4 69 -8 0 -25 49 -22 63 1 4 -5 7
-13 7 -8 0 -15 5 -15 10 0 15 -43 29 -112 39 -36 5 -58 4 -58 -2 0 -5 -8 -3
-17 4 -9 8 -14 9 -10 3 5 -8 -5 -11 -34 -10 -22 1 -42 -1 -45 -5 -5 -8 -30 -6
-40 4 -4 3 -14 2 -24 -3 -19 -10 -38 -9 -59 4 -9 6 -12 5 -7 -2 4 -7 -18 -11
-74 -11 -49 0 -78 4 -75 9 4 6 0 10 -7 10 -9 0 -10 3 -2 8 6 4 11 22 10 40 -1
17 2 32 5 32 3 0 5 36 4 80 -1 46 3 84 9 89 6 5 55 8 108 7 54 0 98 3 98 7 0
4 9 3 20 -3 14 -7 20 -7 20 0 0 5 5 10 11 10 5 0 8 -4 5 -8 -6 -10 30 -9 40 1
12 12 26 8 18 -5 -5 -7 -3 -8 7 -2 8 5 66 9 130 10 63 0 121 4 127 8 7 4 12 3
12 -1 0 -5 26 -6 58 -3 31 3 82 5 112 4 30 0 58 5 62 10 5 7 8 7 8 1 0 -13
150 -13 169 -1 10 6 12 6 7 -2 -4 -7 -3 -12 3 -12 5 0 13 5 16 10 4 6 11 8 16
5 5 -4 9 -1 9 6 0 7 3 10 6 7 7 -7 38 23 52 49 12 23 12 112 1 119 -5 3 -6 10
-3 16 4 6 2 8 -4 4 -6 -3 -14 3 -17 14 -4 13 -13 20 -23 18 -10 -2 -21 2 -27
8 -6 7 -18 9 -30 5z m-706 -767 c6 4 11 0 11 -9 0 -10 5 -13 12 -9 8 5 8 3 2
-7 -5 -8 -10 -45 -10 -84 -1 -38 -3 -72 -4 -75 -1 -3 -4 -43 -5 -90 -2 -47 -4
-87 -5 -90 -1 -3 -2 -22 -2 -43 0 -25 -3 -35 -11 -31 -8 5 -8 3 0 -6 10 -11
10 -17 0 -29 -10 -12 -9 -13 2 -6 10 5 12 4 7 -3 -4 -7 -27 -12 -52 -12 -30 0
-43 -4 -38 -11 5 -8 1 -8 -14 0 -14 7 -23 8 -27 1 -4 -7 -13 -7 -26 0 -13 7
-19 7 -19 0 0 -5 -5 -10 -11 -10 -5 0 -7 5 -3 12 5 8 3 8 -7 2 -20 -13 -99
-13 -99 0 0 7 -4 6 -8 -1 -5 -7 -23 -15 -40 -17 -24 -2 -32 1 -32 13 0 10 -3
12 -8 5 -10 -15 -40 -25 -46 -15 -6 9 -37 8 -54 -3 -7 -4 -12 -2 -12 5 0 8 -4
8 -15 -1 -12 -10 -15 -10 -15 0 0 10 -3 10 -15 0 -8 -7 -15 -8 -15 -3 0 10
-36 11 -46 1 -3 -3 -20 -2 -37 3 -40 11 -40 11 -31 -2 4 -8 1 -8 -12 -2 -11 5
-36 9 -56 7 -23 -1 -38 3 -38 10 0 6 -4 5 -9 -3 -8 -12 -12 -12 -24 -2 -10 8
-17 8 -22 2 -9 -15 -43 9 -40 28 1 9 0 21 -3 26 -4 6 -7 33 -8 60 -4 84 -16
169 -26 182 -6 7 -5 14 2 18 6 3 7 12 3 18 -9 14 -14 36 -14 57 -1 8 -3 22 -6
30 -14 38 -10 52 13 47 12 -2 28 0 36 4 7 4 18 3 25 -3 9 -7 13 -7 13 1 0 7
13 9 36 5 27 -4 34 -3 29 7 -6 9 -4 10 6 3 19 -12 31 -12 46 -2 6 5 14 5 17 0
6 -10 59 -8 77 3 8 6 10 4 4 -6 -8 -12 -6 -12 8 0 12 9 17 10 17 2 0 -8 5 -9
17 -2 11 6 24 6 36 -1 11 -5 17 -6 14 -1 -4 6 23 9 66 9 40 -1 75 3 79 9 5 6
8 5 8 -2 0 -7 6 -10 13 -8 28 11 127 12 127 1 0 -7 3 -7 8 -1 4 6 30 10 57 10
28 0 54 2 60 4 5 3 26 4 47 2 26 -2 38 2 38 11 0 10 2 10 9 -1 5 -7 14 -10 20
-7z"/>
<path d="M2300 2016 c-6 -6 -10 -6 -10 -2 0 5 -8 2 -17 -5 -11 -10 -14 -10 -9
-1 4 7 2 12 -8 12 -8 0 -18 -5 -22 -11 -4 -8 -9 -8 -17 0 -14 14 -30 14 -21 0
4 -7 -1 -7 -16 1 -15 8 -20 8 -16 1 10 -15 -7 -14 -23 2 -11 10 -13 10 -7 0 4
-7 3 -13 -1 -13 -5 0 -15 6 -22 13 -10 9 -12 9 -7 0 5 -9 -3 -11 -29 -9 -19 1
-35 -2 -35 -7 0 -5 -6 -4 -13 2 -8 6 -16 8 -19 5 -3 -3 -48 -6 -100 -8 -51 -1
-99 -5 -106 -10 -7 -4 -12 -4 -12 1 0 4 -24 7 -52 5 -29 -1 -80 -3 -113 -4
-33 -1 -63 -7 -67 -13 -5 -6 -8 -6 -8 3 0 6 -7 12 -16 12 -9 0 -12 -5 -8 -12
6 -10 5 -10 -7 -1 -12 10 -18 10 -29 0 -10 -9 -11 -9 -6 1 5 7 1 12 -9 12 -10
0 -13 -5 -9 -12 5 -8 1 -8 -10 1 -15 13 -19 13 -27 0 -7 -11 -9 -11 -9 0 0 10
-3 11 -14 2 -11 -9 -15 -9 -19 1 -4 10 -7 10 -15 -1 -8 -11 -10 -11 -15 0 -3
9 -6 9 -6 2 -1 -8 -10 -9 -31 -3 -16 5 -30 5 -30 1 0 -8 -42 -7 -56 2 -5 3
-16 2 -24 -3 -7 -4 -19 -6 -27 -3 -7 3 -13 0 -13 -6 0 -6 -3 -10 -7 -10 -32 5
-63 -44 -56 -86 6 -26 87 -118 97 -108 3 3 6 2 6 -4 0 -6 9 -9 20 -6 11 3 20
1 20 -5 0 -13 121 -13 137 0 6 5 14 5 17 0 6 -10 93 -9 103 1 3 4 13 2 20 -5
11 -9 17 -9 24 3 8 12 10 12 19 -1 5 -8 10 -10 10 -4 0 6 23 10 56 10 31 -1
57 1 59 4 2 3 45 5 97 5 54 -1 96 4 100 10 5 6 8 5 8 -4 0 -10 3 -11 14 -2 10
8 16 9 21 1 4 -7 12 -7 26 0 13 8 19 7 19 0 0 -7 6 -8 18 -2 9 4 27 7 40 6 12
0 22 4 22 10 0 6 5 4 10 -4 9 -13 11 -13 20 0 6 10 10 11 10 3 0 -7 5 -13 11
-13 5 0 8 4 4 9 -6 10 41 5 58 -6 6 -3 7 -1 3 5 -4 7 -3 12 3 12 5 0 13 -5 17
-11 4 -8 9 -8 17 0 7 7 15 7 26 -2 10 -8 13 -8 8 0 -5 8 5 11 35 8 55 -3 53
-2 38 -20 -9 -11 -9 -15 -1 -15 9 0 9 -5 0 -21 -8 -16 -8 -20 1 -14 9 6 9 2 1
-14 -9 -16 -9 -21 1 -21 8 0 9 -3 3 -8 -12 -8 -13 -22 -2 -39 4 -6 3 -14 -3
-18 -6 -4 -8 -10 -5 -15 7 -12 -40 -24 -60 -16 -8 3 -15 2 -15 -2 0 -4 -25 -7
-56 -7 -31 0 -58 -3 -60 -7 -3 -5 -14 -4 -24 2 -22 12 -33 13 -27 3 3 -5 -10
-8 -29 -8 -19 0 -34 4 -34 9 0 5 -6 4 -12 -1 -7 -6 -34 -10 -61 -9 -26 1 -47
-3 -47 -7 0 -4 -9 -3 -20 3 -11 6 -20 7 -20 3 0 -4 -53 -8 -118 -7 -64 0 -122
-4 -129 -8 -6 -5 -14 -5 -17 0 -6 10 -36 9 -55 -2 -8 -5 -17 -3 -22 5 -8 12
-11 12 -19 -1 -9 -13 -11 -13 -20 0 -9 13 -10 13 -10 0 0 -12 -2 -12 -9 -1 -6
9 -11 10 -15 2 -5 -8 -13 -8 -26 -1 -13 7 -20 6 -23 -3 -4 -9 -8 -8 -16 3 -10
13 -11 13 -11 0 0 -12 -2 -12 -9 -1 -6 9 -11 10 -15 2 -5 -8 -13 -8 -28 0 -15
8 -19 8 -14 0 5 -8 0 -8 -17 -2 -14 6 -27 8 -30 5 -2 -3 -14 -6 -26 -9 -12 -2
-28 -11 -37 -19 -8 -9 -20 -16 -25 -16 -5 0 -8 -3 -7 -7 0 -5 -2 -16 -7 -26
-4 -10 -5 -21 -1 -24 3 -3 2 -11 -3 -17 -6 -7 -2 -26 10 -50 10 -22 19 -46 19
-53 0 -8 5 -11 10 -8 6 3 10 -3 10 -14 0 -11 5 -23 10 -26 5 -3 10 -15 10 -26
0 -14 4 -18 13 -13 7 5 6 0 -3 -11 -9 -11 -10 -16 -2 -11 6 4 12 4 13 -1 3
-33 11 -58 22 -65 6 -4 9 -8 5 -8 -4 0 0 -16 8 -35 8 -19 12 -35 8 -35 -3 0 2
-7 11 -16 9 -9 14 -22 11 -29 -3 -8 2 -16 10 -19 9 -3 12 -10 9 -16 -3 -5 2
-10 11 -10 10 0 15 -3 11 -6 -3 -4 0 -12 6 -19 19 -18 77 -47 77 -38 0 5 5 0
11 -10 6 -9 13 -15 17 -13 4 2 26 1 50 -4 23 -4 42 -4 42 1 0 4 12 4 28 0 15
-3 43 -6 62 -5 19 2 40 -2 47 -7 7 -7 13 -6 18 1 8 13 65 10 84 -4 11 -8 13
-8 8 0 -5 9 34 11 143 10 83 0 150 2 150 5 0 7 56 3 71 -6 8 -5 10 -4 5 4 -6
8 0 10 18 5 18 -4 26 -2 26 7 0 9 3 10 8 4 10 -15 75 -15 84 -1 6 8 8 7 8 -2
0 -10 5 -10 21 -1 15 8 19 8 15 0 -9 -13 4 -14 24 -1 9 6 19 5 28 -2 10 -9 15
-9 21 1 10 16 22 16 32 -1 7 -11 9 -11 9 1 0 10 8 12 30 8 20 -5 30 -3 30 6 0
8 4 7 10 -3 6 -10 10 -11 10 -3 0 7 3 12 8 11 14 -4 57 15 73 31 27 29 51 121
31 121 -5 0 -13 11 -16 25 -4 16 -13 25 -27 25 -11 0 -17 5 -14 10 7 11 -9 13
-63 11 -24 0 -31 3 -26 12 5 8 2 7 -9 -2 -9 -7 -17 -10 -17 -6 0 4 -7 2 -15
-5 -11 -9 -15 -9 -15 -1 0 7 -4 10 -9 6 -6 -3 -41 -6 -78 -7 -37 -1 -71 -6
-75 -12 -5 -8 -8 -7 -8 2 0 6 -7 12 -16 12 -9 0 -12 -5 -8 -12 6 -10 5 -10 -7
-1 -11 9 -19 9 -26 2 -8 -8 -13 -8 -17 0 -4 6 -12 11 -17 11 -6 0 -8 -4 -5 -8
3 -5 -1 -9 -9 -9 -8 0 -12 4 -9 9 3 4 1 8 -5 8 -5 0 -13 -5 -16 -10 -4 -6 -11
-8 -16 -4 -16 9 -130 11 -136 1 -2 -4 -11 -3 -18 3 -9 7 -15 8 -19 1 -4 -6
-20 -9 -35 -8 -16 1 -27 5 -24 10 2 4 -1 7 -6 7 -6 0 -11 -5 -11 -10 0 -7 -7
-7 -21 1 -12 6 -19 7 -16 2 3 -5 -20 -8 -51 -7 -31 1 -57 3 -57 4 0 7 -36 6
-41 -1 -4 -6 -11 -6 -19 1 -10 8 -15 8 -20 -1 -6 -8 -10 -7 -16 2 -7 12 -9 12
-9 0 0 -11 -3 -11 -15 -1 -10 8 -15 9 -15 1 0 -7 -8 -8 -26 -1 -16 7 -23 7
-19 0 3 -6 2 -10 -4 -10 -6 0 -14 12 -17 28 -4 15 -13 36 -20 47 -17 24 -18
38 -1 29 6 -4 4 2 -6 13 -9 11 -14 23 -11 26 4 4 2 12 -3 19 -5 7 -12 20 -16
29 -6 18 4 19 368 24 116 2 212 4 215 5 3 1 37 2 75 2 39 0 76 5 84 12 11 8
13 8 8 -1 -5 -8 7 -11 42 -10 31 1 47 5 43 12 -3 5 1 4 9 -2 12 -10 18 -10 27
-1 9 9 12 9 12 1 0 -8 9 -9 29 -3 16 4 32 6 35 2 3 -3 6 1 6 9 0 12 2 12 10
-1 8 -12 10 -12 16 4 5 12 9 14 14 6 5 -8 12 -7 24 5 9 10 20 15 23 11 8 -7
40 30 48 55 4 11 11 16 18 12 7 -4 5 2 -3 12 -8 10 -10 16 -3 12 7 -5 12 -1
11 10 0 10 3 65 7 123 4 58 7 122 7 143 0 20 4 40 9 43 5 3 5 14 -1 25 -8 14
-7 19 2 19 10 0 10 2 0 9 -7 4 -12 12 -11 17 4 23 -3 43 -21 64 -11 13 -20 27
-20 32 0 4 -5 8 -11 8 -6 0 -25 10 -42 22 -17 12 -27 16 -22 7 8 -12 6 -12 -9
1 -21 16 -151 21 -166 6z"/>
</g>
</svg>
